<?xml version="1.0" encoding="UTF-8" standalone="no"?>
<svg width="173px" height="165px" viewBox="0 0 173 165" version="1.1" xmlns="http://www.w3.org/2000/svg" xmlns:xlink="http://www.w3.org/1999/xlink" xmlns:sketch="http://www.bohemiancoding.com/sketch/ns">
    <!-- Generator: Sketch 3.3.3 (12081) - http://www.bohemiancoding.com/sketch -->
    <title>newspaper copy</title>
    <desc>Created with Sketch.</desc>
    <defs></defs>
    <g id="onboard-/-3" stroke="none" stroke-width="1" fill="none" fill-rule="evenodd" sketch:type="MSPage">
        <g id="newspaper-copy" sketch:type="MSLayerGroup" transform="translate(-9.500123, -9.000000)" stroke="#FFFFFF" stroke-width="6" fill="#FFC600">
            <path d="M160,88.00004 L32,88.00004 L32,63.99996 L160,63.99996 L160,88.00004 Z M160,104.00004 L104,104.00004 L104,96.00004 L160,96.00004 L160,104.00004 Z M160,120.00004 L104,120.00004 L104,112.00004 L160,112.00004 L160,120.00004 Z M160,136.00004 L104,136.00004 L104,128.00004 L160,128.00004 L160,136.00004 Z M160,152.00004 L104,152.00004 L104,144.00004 L160,144.00004 L160,152.00004 Z M96,152.00004 L32,152.00004 L32,96.00004 L96,96.00004 L96,152.00004 Z M162.664,37.33636 L149.336,23.99996 L136,37.33636 L122.664,23.99996 L109.336,37.33636 L96,23.99996 L82.664,37.33636 L69.33608,23.99996 L56,37.33636 L42.66392,23.99996 L29.33608,37.33636 L16,23.99996 L16,152.00004 C16,160.83204 23.16008,168.00004 32,168.00004 L160,168.00004 C168.832,168.00004 175.92,160.83204 175.92,152.00004 L176,23.99996 L162.664,37.33636 L162.664,37.33636 Z" id="Shape" sketch:type="MSShapeGroup"></path>
        </g>
    </g>
</svg>