<?xml version="1.0" encoding="UTF-8" standalone="no"?>
<svg width="300px" height="204px" viewBox="0 0 300 204" version="1.1" xmlns="http://www.w3.org/2000/svg" xmlns:xlink="http://www.w3.org/1999/xlink" xmlns:sketch="http://www.bohemiancoding.com/sketch/ns">
    <!-- Generator: Sketch 3.3.3 (12081) - http://www.bohemiancoding.com/sketch -->
    <title>cloud copy</title>
    <desc>Created with Sketch.</desc>
    <defs></defs>
    <g id="onboard-/-2" stroke="none" stroke-width="1" fill="none" fill-rule="evenodd" sketch:type="MSPage">
        <g id="cloud-copy" sketch:type="MSLayerGroup" transform="translate(5.000000, -42.000000)">
            <path d="M145,47.9997 C110.29576,47.9997 80.23576,67.66782 65.20684,96.44394 C29.11576,100.31994 0.99975478,130.8723 0.99975478,168.0003 C0.99975478,207.7683 33.23176,240.0003 72.99976,240.0003 L229,240.0003 C262.132,240.0003 289,213.1443 289,180.0003 C289,148.3203 264.364,122.6523 233.26,120.4323 C225.0856,79.13982 188.692,47.9997 145,47.9997 Z" id="Shape" stroke="#FFFFFF" stroke-width="6" fill="#FFC600" sketch:type="MSShapeGroup"></path>
            <g id="Imported-Layers" transform="translate(87.999877, 96.000300)" fill="#FFFFFF" sketch:type="MSShapeGroup">
                <path d="M70.8876097,43.4383994 L96.3407511,43.4383994 L96.3407511,53.5472095 L70.8876097,53.5472095 L70.8876097,43.4383994 Z" id="Fill-1"></path>
                <path d="M47.7375921,118.883398 C30.3546508,118.883398 22.5363285,103.871815 22.5363285,93.2129168 C22.5363285,78.1983854 32.7912952,71.6925237 37.2004212,69.5919972 L41.5484731,78.7185679 C38.2230958,80.3018603 32.6451386,84.2914707 32.6451386,93.2129168 C32.6451386,104.549947 41.9022815,108.774588 47.7375921,108.774588 C51.9100035,108.774588 55.351211,107.442752 57.9660232,104.816146 C61.8457002,100.918779 63.8754651,94.3387855 63.8367146,85.7871534 L63.8367146,77.7611794 C63.8367146,62.4080028 63.8657775,44.5221481 63.8893647,30.1507898 C63.9049491,20.5381537 63.9180063,12.5121797 63.9180063,7.9017199 L74.0268164,7.9017199 C74.0268164,12.5155493 74.0137592,20.5469989 73.9981748,30.1672166 C73.9745876,44.5347841 73.9455247,62.4160056 73.9455247,77.7611794 L73.9455247,85.7639874 C73.9969112,97.0407862 70.9486837,106.102492 65.1302211,111.94749 C60.613689,116.485082 54.5993682,118.883398 47.7375921,118.883398" id="Fill-2"></path>
                <path d="M28.9655318,66.582099 C12.4860653,66.582099 0.0585468585,53.4372762 0.0585468585,36.006318 L0.0694980695,35.6727273 C0.625482625,27.2651457 3.84471744,20.1253773 9.37760618,15.0246402 C14.6169182,10.1951562 21.7229905,7.53527554 29.3867322,7.53527554 C42.8065988,7.53527554 47.2755353,7.53990874 51.5098631,7.54454194 C55.3179361,7.54875395 58.9356265,7.55254475 68.7112671,7.55254475 C83.2060372,7.55254475 95.7241137,7.55254475 100.171148,0.056019656 L108.865146,5.21319761 C101.481081,17.6613549 85.563496,17.6613549 68.7112671,17.6613549 C58.9293085,17.6613549 55.3090909,17.6575641 51.4989119,17.6533521 C47.2671113,17.6487188 42.7998596,17.6440856 29.3867322,17.6440856 C18.5096525,17.6440856 10.9815374,24.9106353 10.1677782,36.1735346 C10.2414882,47.9465075 18.1242541,56.4732889 28.9655318,56.4732889 C34.2254826,56.4732889 38.429484,54.6381186 41.4617059,51.017901 C44.440014,47.4625483 46.0797473,42.2809407 46.0797473,36.4275184 L56.1885574,36.4275184 C56.1885574,44.6501931 53.7110565,52.1366093 49.2113724,57.5090207 C44.2395226,63.444577 37.2387504,66.582099 28.9655318,66.582099" id="Fill-3"></path>
            </g>
        </g>
    </g>
</svg>