<?xml version="1.0" encoding="UTF-8" standalone="no"?>
<svg width="160px" height="144px" viewBox="0 0 160 144" version="1.1" xmlns="http://www.w3.org/2000/svg" xmlns:xlink="http://www.w3.org/1999/xlink" xmlns:sketch="http://www.bohemiancoding.com/sketch/ns">
    <!-- Generator: Sketch 3.3.3 (12081) - http://www.bohemiancoding.com/sketch -->
    <title>camera copy</title>
    <desc>Created with Sketch.</desc>
    <defs></defs>
    <g id="onboard-/-2" stroke="none" stroke-width="1" fill="none" fill-rule="evenodd" sketch:type="MSPage">
        <g id="camera-copy" sketch:type="MSLayerGroup" transform="translate(-16.000000, -24.000000)" fill-opacity="0.54" fill="#000000">
            <path d="M32,40.00012 L56,39.99996 L72,24.00004 L120,24.00004 L136,39.99996 L160,40.00012 C168.836,40.00012 176,47.16356 176,56.00012 L176,151.99996 C176,160.83676 168.836,167.99996 160,167.99996 L32,167.99996 C23.16344,167.99996 16,160.83676 16,151.99996 L16,56.00012 C16,47.16356 23.16344,40.00012 32,40.00012 L32,40.00012 Z M96,63.99996 C73.90864,63.99996 56,81.9086 56,103.99996 C56,126.09116 73.90864,143.99996 96,143.99996 C118.0912,143.99996 136,126.09116 136,103.99996 C136,81.9086 118.0912,63.99996 96,63.99996 L96,63.99996 Z M96,79.99996 C109.2544,79.99996 120,90.74556 120,103.99996 C120,117.25516 109.2544,127.99996 96,127.99996 C82.7448,127.99996 72,117.25516 72,103.99996 C72,90.74556 82.7448,79.99996 96,79.99996 L96,79.99996 Z" id="Shape" sketch:type="MSShapeGroup"></path>
        </g>
    </g>
</svg>