<?xml version="1.0" encoding="UTF-8" standalone="no"?>
<svg width="84px" height="60px" viewBox="0 0 84 60" version="1.1" xmlns="http://www.w3.org/2000/svg" xmlns:xlink="http://www.w3.org/1999/xlink" xmlns:sketch="http://www.bohemiancoding.com/sketch/ns">
    <!-- Generator: Sketch 3.3.3 (12081) - http://www.bohemiancoding.com/sketch -->
    <title>cash copy</title>
    <desc>Created with Sketch.</desc>
    <defs></defs>
    <g id="onboard-/-3" stroke="none" stroke-width="1" fill="none" fill-rule="evenodd" sketch:type="MSPage">
        <g id="cash-copy" sketch:type="MSLayerGroup" transform="translate(-6.000000, -18.000000)" stroke="#FFFFFF" stroke-width="6" fill="#4CD764">
            <path d="M12,24 L84,24 L84,72 L12,72 L12,24 L12,24 Z M48,36.00004 C54.6272,36.00004 60,41.3728 60,48 C60,54.6276 54.6272,60 48,60 C41.3724,60 35.99996,54.6276 35.99996,48 C35.99996,41.3728 41.3724,36.00004 48,36.00004 L48,36.00004 Z M28,32.00004 C28,36.41832 24.41824,40 20,40 L19.99996,56 C24.41824,56 27.99996,59.5816 27.99996,64 L68,64 C68,59.5816 71.5816,56 76,56 L76,40 C71.5816,40 68,36.41832 68,32.00008 L28,32.00004 L28,32.00004 Z" id="Shape" sketch:type="MSShapeGroup"></path>
        </g>
    </g>
</svg>