<?xml version="1.0" encoding="UTF-8" standalone="no"?>
<svg width="320px" height="321px" viewBox="0 0 320 321" version="1.1" xmlns="http://www.w3.org/2000/svg" xmlns:xlink="http://www.w3.org/1999/xlink" xmlns:sketch="http://www.bohemiancoding.com/sketch/ns">
    <!-- Generator: Sketch 3.3.3 (12081) - http://www.bohemiancoding.com/sketch -->
    <title>earth copy</title>
    <desc>Created with Sketch.</desc>
    <defs></defs>
    <g id="onboard-/-1" stroke="none" stroke-width="1" fill="none" fill-rule="evenodd" sketch:type="MSPage">
        <g id="earth-copy" sketch:type="MSLayerGroup" transform="translate(-32.000000, -31.000000)" fill-opacity="0.54" fill="#000000">
            <path d="M286.33608,277.48824 C282.20808,264.59224 270.25608,255.20024 256.00008,255.20024 L240.00008,255.20024 L240.00008,207.20024 C240.00008,198.35224 232.83208,191.20024 224.00008,191.20024 L127.99992,191.20024 L127.99992,159.19976 L159.99992,159.19976 C168.83208,159.19976 176.00008,152.03176 176.00008,143.19976 L176.00008,111.19976 L208.00008,111.19976 C225.66408,111.19976 240.00008,96.86376 240.00008,79.19976 L240.00008,72.59176 C286.88008,91.58376 320.00008,137.48776 320.00008,191.20024 C320.00008,224.49624 307.18408,254.72024 286.33608,277.48824 L286.33608,277.48824 Z M176.00008,318.08024 C112.88008,310.19224 63.99992,256.44824 63.99992,191.20024 C63.99992,181.32824 65.21592,171.76024 67.32808,162.52824 L143.99992,239.20024 L143.99992,255.20024 C143.99992,272.86424 158.31992,287.20024 176.00008,287.20024 L176.00008,318.08024 Z M192.00008,31.19976 C103.63192,31.19976 31.99992,102.83176 31.99992,191.20024 C31.99992,279.55224 103.63192,351.20024 192.00008,351.20024 C280.36808,351.20024 352.00008,279.55224 352.00008,191.20024 C352.00008,102.83176 280.36808,31.19976 192.00008,31.19976 L192.00008,31.19976 Z" id="Shape" sketch:type="MSShapeGroup"></path>
        </g>
    </g>
</svg>