<?xml version="1.0" encoding="UTF-8" standalone="no"?>
<svg width="188px" height="156px" viewBox="0 0 188 156" version="1.1" xmlns="http://www.w3.org/2000/svg" xmlns:xlink="http://www.w3.org/1999/xlink" xmlns:sketch="http://www.bohemiancoding.com/sketch/ns">
    <!-- Generator: Sketch 3.3.3 (12081) - http://www.bohemiancoding.com/sketch -->
    <title>television-guide copy</title>
    <desc>Created with Sketch.</desc>
    <defs></defs>
    <g id="onboard-/-3" stroke="none" stroke-width="1" fill="none" fill-rule="evenodd" sketch:type="MSPage">
        <g id="television-guide-copy" sketch:type="MSLayerGroup" transform="translate(-2.000123, -18.000000)" stroke="#FFFFFF" stroke-width="6" fill="#FFC600">
            <path d="M168,135.99996 L168,39.99996 L24,39.99996 L24,135.99996 L168,135.99996 L168,135.99996 Z M184,40.00004 L183.92,135.99996 C183.92,144.79996 176.8,151.99996 168,151.99996 L128,151.99996 L128,167.99996 L64,167.99996 L64,151.99996 L24,151.99996 C15.2,151.99996 8,144.79996 8,135.99996 L8,40.00004 C8,31.20004 15.2,24.00004 24,24.00004 L168,24.00004 C176.8,24.00004 184,31.20004 184,40.00004 Z M40,56.00004 L88,56.00004 L88,87.99996 L40,87.99996 L40,56.00004 L40,56.00004 Z M40,103.99996 L88,103.99996 L88,119.99996 L40,119.99996 L40,103.99996 L40,103.99996 Z M104,56.00004 L152,56.00004 L152,72.00004 L104,72.00004 L104,56.00004 L104,56.00004 Z M104,87.99996 L152,87.99996 L152,119.99996 L104,119.99996 L104,87.99996 L104,87.99996 Z" id="Shape" sketch:type="MSShapeGroup"></path>
        </g>
    </g>
</svg>